<svg version="1.1" xmlns="http://www.w3.org/2000/svg" xmlns:xlink="http://www.w3.org/1999/xlink" width="613.15625" height="647"><defs/><g><g transform="translate(-502,-174) scale(1,1)"><rect fill="#ffffff" stroke="none" x="832" y="352" width="273.15625" height="135"/></g><g transform="translate(-502,-174) scale(1,1)"><path fill="none" stroke="#000000" d="M 832 352 L 1105.15625 352 L 1105.15625 487 L 832 487 L 832 352 Z Z" stroke-miterlimit="10"/></g><g transform="translate(-502,-174) scale(1,1)"><path fill="none" stroke="#000000" d="M 832 375 L 1105.15625 375" stroke-miterlimit="10"/></g><g transform="translate(-502,-174) scale(1,1)"><path fill="none" stroke="#000000" d="M 860.05908203125 375 L 860.05908203125 487" stroke-miterlimit="10"/></g><g transform="translate(-502,-174) scale(1,1)"><path fill="none" stroke="#000000" d="M 973.37353515625 375 L 973.37353515625 487" stroke-miterlimit="10"/></g><g transform="translate(-502,-174) scale(1,1)"><g><path fill="none" stroke="none"/><text fill="#000000" stroke="none" font-family="Arial" font-size="13px" font-style="normal" font-weight="bold" text-decoration="none" x="955.93359375" y="369.5">user</text></g></g><g transform="translate(-502,-174) scale(1,1)"><g><path fill="none" stroke="none"/><text fill="#000000" stroke="none" font-family="Arial" font-size="13px" font-style="normal" font-weight="normal" text-decoration="none" x="837" y="393">PK</text></g></g><g transform="translate(-502,-174) scale(1,1)"><g><path fill="none" stroke="none"/><text fill="#000000" stroke="none" font-family="Arial" font-size="13px" font-style="normal" font-weight="normal" text-decoration="none" x="865.05908203125" y="393">id</text></g></g><g transform="translate(-502,-174) scale(1,1)"><g><path fill="none" stroke="none"/><text fill="#000000" stroke="none" font-family="Arial" font-size="13px" font-style="normal" font-weight="normal" text-decoration="none" x="978.37353515625" y="393">BIGINT UNSIGNED</text></g></g><g transform="translate(-502,-174) scale(1,1)"><g><path fill="none" stroke="none"/><text fill="#000000" stroke="none" font-family="Arial" font-size="13px" font-style="normal" font-weight="normal" text-decoration="none" x="837" y="408"></text></g></g><g transform="translate(-502,-174) scale(1,1)"><g><path fill="none" stroke="none"/><text fill="#000000" stroke="none" font-family="Arial" font-size="13px" font-style="normal" font-weight="normal" text-decoration="none" x="865.05908203125" y="408">role</text></g></g><g transform="translate(-502,-174) scale(1,1)"><g><path fill="none" stroke="none"/><text fill="#000000" stroke="none" font-family="Arial" font-size="13px" font-style="normal" font-weight="normal" text-decoration="none" x="978.37353515625" y="408">TINYINT UNSIGNED</text></g></g><g transform="translate(-502,-174) scale(1,1)"><g><path fill="none" stroke="none"/><text fill="#000000" stroke="none" font-family="Arial" font-size="13px" font-style="normal" font-weight="normal" text-decoration="none" x="837" y="423">U</text></g></g><g transform="translate(-502,-174) scale(1,1)"><g><path fill="none" stroke="none"/><text fill="#000000" stroke="none" font-family="Arial" font-size="13px" font-style="normal" font-weight="normal" text-decoration="none" x="865.05908203125" y="423">username</text></g></g><g transform="translate(-502,-174) scale(1,1)"><g><path fill="none" stroke="none"/><text fill="#000000" stroke="none" font-family="Arial" font-size="13px" font-style="normal" font-weight="normal" text-decoration="none" x="978.37353515625" y="423">VARCHAR(250)</text></g></g><g transform="translate(-502,-174) scale(1,1)"><g><path fill="none" stroke="none"/><text fill="#000000" stroke="none" font-family="Arial" font-size="13px" font-style="normal" font-weight="normal" text-decoration="none" x="837" y="438"></text></g></g><g transform="translate(-502,-174) scale(1,1)"><g><path fill="none" stroke="none"/><text fill="#000000" stroke="none" font-family="Arial" font-size="13px" font-style="normal" font-weight="normal" text-decoration="none" x="865.05908203125" y="438">email</text></g></g><g transform="translate(-502,-174) scale(1,1)"><g><path fill="none" stroke="none"/><text fill="#000000" stroke="none" font-family="Arial" font-size="13px" font-style="normal" font-weight="normal" text-decoration="none" x="978.37353515625" y="438">VARCHAR(250)</text></g></g><g transform="translate(-502,-174) scale(1,1)"><g><path fill="none" stroke="none"/><text fill="#000000" stroke="none" font-family="Arial" font-size="13px" font-style="normal" font-weight="normal" text-decoration="none" x="837" y="453">N</text></g></g><g transform="translate(-502,-174) scale(1,1)"><g><path fill="none" stroke="none"/><text fill="#000000" stroke="none" font-family="Arial" font-size="13px" font-style="normal" font-weight="normal" text-decoration="none" x="865.05908203125" y="453">email_confirmed</text></g></g><g transform="translate(-502,-174) scale(1,1)"><g><path fill="none" stroke="none"/><text fill="#000000" stroke="none" font-family="Arial" font-size="13px" font-style="normal" font-weight="normal" text-decoration="none" x="978.37353515625" y="453">BOOLEAN</text></g></g><g transform="translate(-502,-174) scale(1,1)"><g><path fill="none" stroke="none"/><text fill="#000000" stroke="none" font-family="Arial" font-size="13px" font-style="normal" font-weight="normal" text-decoration="none" x="837" y="468"></text></g></g><g transform="translate(-502,-174) scale(1,1)"><g><path fill="none" stroke="none"/><text fill="#000000" stroke="none" font-family="Arial" font-size="13px" font-style="normal" font-weight="normal" text-decoration="none" x="865.05908203125" y="468">password</text></g></g><g transform="translate(-502,-174) scale(1,1)"><g><path fill="none" stroke="none"/><text fill="#000000" stroke="none" font-family="Arial" font-size="13px" font-style="normal" font-weight="normal" text-decoration="none" x="978.37353515625" y="468">BINARY(60)</text></g></g><g transform="translate(-502,-174) scale(1,1)"><g><path fill="none" stroke="none"/><text fill="#000000" stroke="none" font-family="Arial" font-size="13px" font-style="normal" font-weight="normal" text-decoration="none" x="837" y="483"></text></g></g><g transform="translate(-502,-174) scale(1,1)"><g><path fill="none" stroke="none"/><text fill="#000000" stroke="none" font-family="Arial" font-size="13px" font-style="normal" font-weight="normal" text-decoration="none" x="865.05908203125" y="483">created</text></g></g><g transform="translate(-502,-174) scale(1,1)"><g><path fill="none" stroke="none"/><text fill="#000000" stroke="none" font-family="Arial" font-size="13px" font-style="normal" font-weight="normal" text-decoration="none" x="978.37353515625" y="483">DATETIME</text></g></g><g transform="translate(-502,-174) scale(1,1)"><rect fill="#ffffff" stroke="none" x="864" y="552" width="209.58447265625" height="75"/></g><g transform="translate(-502,-174) scale(1,1)"><path fill="none" stroke="#000000" d="M 864 552 L 1073.58447265625 552 L 1073.58447265625 627 L 864 627 L 864 552 Z Z" stroke-miterlimit="10"/></g><g transform="translate(-502,-174) scale(1,1)"><path fill="none" stroke="#000000" d="M 864 575 L 1073.58447265625 575" stroke-miterlimit="10"/></g><g transform="translate(-502,-174) scale(1,1)"><path fill="none" stroke="#000000" d="M 891.3291015625 575 L 891.3291015625 627" stroke-miterlimit="10"/></g><g transform="translate(-502,-174) scale(1,1)"><path fill="none" stroke="#000000" d="M 947.57177734375 575 L 947.57177734375 627" stroke-miterlimit="10"/></g><g transform="translate(-502,-174) scale(1,1)"><g><path fill="none" stroke="none"/><text fill="#000000" stroke="none" font-family="Arial" font-size="13px" font-style="normal" font-weight="bold" text-decoration="none" x="953.62451171875" y="569.5">claim</text></g></g><g transform="translate(-502,-174) scale(1,1)"><g><path fill="none" stroke="none"/><text fill="#000000" stroke="none" font-family="Arial" font-size="13px" font-style="normal" font-weight="normal" text-decoration="none" x="869" y="593">FK</text></g></g><g transform="translate(-502,-174) scale(1,1)"><g><path fill="none" stroke="none"/><text fill="#000000" stroke="none" font-family="Arial" font-size="13px" font-style="normal" font-weight="normal" text-decoration="none" x="896.3291015625" y="593">user_id</text></g></g><g transform="translate(-502,-174) scale(1,1)"><g><path fill="none" stroke="none"/><text fill="#000000" stroke="none" font-family="Arial" font-size="13px" font-style="normal" font-weight="normal" text-decoration="none" x="952.57177734375" y="593">UNSIGNED BIGINT</text></g></g><g transform="translate(-502,-174) scale(1,1)"><g><path fill="none" stroke="none"/><text fill="#000000" stroke="none" font-family="Arial" font-size="13px" font-style="normal" font-weight="normal" text-decoration="none" x="869" y="608"></text></g></g><g transform="translate(-502,-174) scale(1,1)"><g><path fill="none" stroke="none"/><text fill="#000000" stroke="none" font-family="Arial" font-size="13px" font-style="normal" font-weight="normal" text-decoration="none" x="896.3291015625" y="608">key</text></g></g><g transform="translate(-502,-174) scale(1,1)"><g><path fill="none" stroke="none"/><text fill="#000000" stroke="none" font-family="Arial" font-size="13px" font-style="normal" font-weight="normal" text-decoration="none" x="952.57177734375" y="608">VARCHAR(250)</text></g></g><g transform="translate(-502,-174) scale(1,1)"><g><path fill="none" stroke="none"/><text fill="#000000" stroke="none" font-family="Arial" font-size="13px" font-style="normal" font-weight="normal" text-decoration="none" x="869" y="623">N</text></g></g><g transform="translate(-502,-174) scale(1,1)"><g><path fill="none" stroke="none"/><text fill="#000000" stroke="none" font-family="Arial" font-size="13px" font-style="normal" font-weight="normal" text-decoration="none" x="896.3291015625" y="623">value</text></g></g><g transform="translate(-502,-174) scale(1,1)"><g><path fill="none" stroke="none"/><text fill="#000000" stroke="none" font-family="Arial" font-size="13px" font-style="normal" font-weight="normal" text-decoration="none" x="952.57177734375" y="623">TEXT</text></g></g><g transform="translate(-502,-174) scale(1,1)"><path fill="none" stroke="#000000" d="M 968 487 L 968 552" stroke-miterlimit="10"/></g><g transform="translate(-502,-174) scale(1,1)"><path fill="none" stroke="#000000" d="M 968 538 L 961 552" stroke-miterlimit="10"/></g><g transform="translate(-502,-174) scale(1,1)"><path fill="none" stroke="#000000" d="M 968 538 L 975 552" stroke-miterlimit="10"/></g><g transform="translate(-502,-174) scale(1,1)"><path fill="#FFFFFF" stroke="none" d="M 961 530 C 961 526.1340064 964.1340064 523 968 523 C 971.8659936 523 975 526.1340064 975 530 C 975 533.8659936 971.8659936 537 968 537 C 964.1340064 537 961 533.8659936 961 530 Z"/></g><g transform="translate(-502,-174) scale(1,1)"><path fill="none" stroke="#000000" d="M 961 530 C 961 526.1340064 964.1340064 523 968 523 C 971.8659936 523 975 526.1340064 975 530 C 975 533.8659936 971.8659936 537 968 537 C 964.1340064 537 961 533.8659936 961 530 Z" stroke-miterlimit="10"/></g><g transform="translate(-502,-174) scale(1,1)"><path fill="none" stroke="#000000" d="M 975 494 L 961 494" stroke-miterlimit="10"/></g><g transform="translate(-502,-174) scale(1,1)"><g><path fill="none" stroke="none"/><text fill="#000000" stroke="none" font-family="Arial" font-size="13px" font-style="normal" font-weight="normal" text-decoration="none" x="982.5" y="518.5"></text></g></g><g transform="translate(-502,-174) scale(1,1)"><g><path fill="none" stroke="none"/><text fill="#000000" stroke="none" font-family="Arial" font-size="13px" font-style="normal" font-weight="normal" text-decoration="none" x="982.5" y="532.5"></text></g></g><g transform="translate(-502,-174) scale(1,1)"><rect fill="#ffffff" stroke="none" x="864" y="184" width="213.20263671875" height="105"/></g><g transform="translate(-502,-174) scale(1,1)"><path fill="none" stroke="#000000" d="M 864 184 L 1077.20263671875 184 L 1077.20263671875 289 L 864 289 L 864 184 Z Z" stroke-miterlimit="10"/></g><g transform="translate(-502,-174) scale(1,1)"><path fill="none" stroke="#000000" d="M 864 207 L 1077.20263671875 207" stroke-miterlimit="10"/></g><g transform="translate(-502,-174) scale(1,1)"><path fill="none" stroke="#000000" d="M 892.05908203125 207 L 892.05908203125 289" stroke-miterlimit="10"/></g><g transform="translate(-502,-174) scale(1,1)"><path fill="none" stroke="#000000" d="M 951.919921875 207 L 951.919921875 289" stroke-miterlimit="10"/></g><g transform="translate(-502,-174) scale(1,1)"><g><path fill="none" stroke="none"/><text fill="#000000" stroke="none" font-family="Arial" font-size="13px" font-style="normal" font-weight="bold" text-decoration="none" x="938.44091796875" y="201.5">user_token</text></g></g><g transform="translate(-502,-174) scale(1,1)"><g><path fill="none" stroke="none"/><text fill="#000000" stroke="none" font-family="Arial" font-size="13px" font-style="normal" font-weight="normal" text-decoration="none" x="869" y="225">PK</text></g></g><g transform="translate(-502,-174) scale(1,1)"><g><path fill="none" stroke="none"/><text fill="#000000" stroke="none" font-family="Arial" font-size="13px" font-style="normal" font-weight="normal" text-decoration="none" x="897.05908203125" y="225">id</text></g></g><g transform="translate(-502,-174) scale(1,1)"><g><path fill="none" stroke="none"/><text fill="#000000" stroke="none" font-family="Arial" font-size="13px" font-style="normal" font-weight="normal" text-decoration="none" x="956.919921875" y="225">UNSGINED BIGINT</text></g></g><g transform="translate(-502,-174) scale(1,1)"><g><path fill="none" stroke="none"/><text fill="#000000" stroke="none" font-family="Arial" font-size="13px" font-style="normal" font-weight="normal" text-decoration="none" x="869" y="240">FK</text></g></g><g transform="translate(-502,-174) scale(1,1)"><g><path fill="none" stroke="none"/><text fill="#000000" stroke="none" font-family="Arial" font-size="13px" font-style="normal" font-weight="normal" text-decoration="none" x="897.05908203125" y="240">user_id</text></g></g><g transform="translate(-502,-174) scale(1,1)"><g><path fill="none" stroke="none"/><text fill="#000000" stroke="none" font-family="Arial" font-size="13px" font-style="normal" font-weight="normal" text-decoration="none" x="956.919921875" y="240">UNSIGNED BIGINT</text></g></g><g transform="translate(-502,-174) scale(1,1)"><g><path fill="none" stroke="none"/><text fill="#000000" stroke="none" font-family="Arial" font-size="13px" font-style="normal" font-weight="normal" text-decoration="none" x="869" y="255">U</text></g></g><g transform="translate(-502,-174) scale(1,1)"><g><path fill="none" stroke="none"/><text fill="#000000" stroke="none" font-family="Arial" font-size="13px" font-style="normal" font-weight="normal" text-decoration="none" x="897.05908203125" y="255">selector</text></g></g><g transform="translate(-502,-174) scale(1,1)"><g><path fill="none" stroke="none"/><text fill="#000000" stroke="none" font-family="Arial" font-size="13px" font-style="normal" font-weight="normal" text-decoration="none" x="956.919921875" y="255">CHAR(12)</text></g></g><g transform="translate(-502,-174) scale(1,1)"><g><path fill="none" stroke="none"/><text fill="#000000" stroke="none" font-family="Arial" font-size="13px" font-style="normal" font-weight="normal" text-decoration="none" x="869" y="270"></text></g></g><g transform="translate(-502,-174) scale(1,1)"><g><path fill="none" stroke="none"/><text fill="#000000" stroke="none" font-family="Arial" font-size="13px" font-style="normal" font-weight="normal" text-decoration="none" x="897.05908203125" y="270">token</text></g></g><g transform="translate(-502,-174) scale(1,1)"><g><path fill="none" stroke="none"/><text fill="#000000" stroke="none" font-family="Arial" font-size="13px" font-style="normal" font-weight="normal" text-decoration="none" x="956.919921875" y="270">BINARY(32)</text></g></g><g transform="translate(-502,-174) scale(1,1)"><g><path fill="none" stroke="none"/><text fill="#000000" stroke="none" font-family="Arial" font-size="13px" font-style="normal" font-weight="normal" text-decoration="none" x="869" y="285"></text></g></g><g transform="translate(-502,-174) scale(1,1)"><g><path fill="none" stroke="none"/><text fill="#000000" stroke="none" font-family="Arial" font-size="13px" font-style="normal" font-weight="normal" text-decoration="none" x="897.05908203125" y="285">expire</text></g></g><g transform="translate(-502,-174) scale(1,1)"><g><path fill="none" stroke="none"/><text fill="#000000" stroke="none" font-family="Arial" font-size="13px" font-style="normal" font-weight="normal" text-decoration="none" x="956.919921875" y="285">DATETIME</text></g></g><g transform="translate(-502,-174) scale(1,1)"><path fill="none" stroke="#000000" d="M 968 352 L 968 289" stroke-miterlimit="10"/></g><g transform="translate(-502,-174) scale(1,1)"><path fill="none" stroke="#000000" d="M 968 303 L 975 289" stroke-miterlimit="10"/></g><g transform="translate(-502,-174) scale(1,1)"><path fill="none" stroke="#000000" d="M 968 303 L 961 289" stroke-miterlimit="10"/></g><g transform="translate(-502,-174) scale(1,1)"><path fill="#FFFFFF" stroke="none" d="M 961 311 C 961 307.1340064 964.1340064 304 968 304 C 971.8659936 304 975 307.1340064 975 311 C 975 314.8659936 971.8659936 318 968 318 C 964.1340064 318 961 314.8659936 961 311 Z"/></g><g transform="translate(-502,-174) scale(1,1)"><path fill="none" stroke="#000000" d="M 961 311 C 961 307.1340064 964.1340064 304 968 304 C 971.8659936 304 975 307.1340064 975 311 C 975 314.8659936 971.8659936 318 968 318 C 964.1340064 318 961 314.8659936 961 311 Z" stroke-miterlimit="10"/></g><g transform="translate(-502,-174) scale(1,1)"><path fill="none" stroke="#000000" d="M 961 345 L 975 345" stroke-miterlimit="10"/></g><g transform="translate(-502,-174) scale(1,1)"><g><path fill="none" stroke="none"/><text fill="#000000" stroke="none" font-family="Arial" font-size="13px" font-style="normal" font-weight="normal" text-decoration="none" x="952.5" y="332.5"></text></g></g><g transform="translate(-502,-174) scale(1,1)"><g><path fill="none" stroke="none"/><text fill="#000000" stroke="none" font-family="Arial" font-size="13px" font-style="normal" font-weight="normal" text-decoration="none" x="952.5" y="320.5"></text></g></g><g transform="translate(-502,-174) scale(1,1)"><rect fill="#ffffff" stroke="none" x="512" y="352" width="257.97265625" height="135"/></g><g transform="translate(-502,-174) scale(1,1)"><path fill="none" stroke="#000000" d="M 512 352 L 769.97265625 352 L 769.97265625 487 L 512 487 L 512 352 Z Z" stroke-miterlimit="10"/></g><g transform="translate(-502,-174) scale(1,1)"><path fill="none" stroke="#000000" d="M 512 375 L 769.97265625 375" stroke-miterlimit="10"/></g><g transform="translate(-502,-174) scale(1,1)"><path fill="none" stroke="#000000" d="M 540.05908203125 375 L 540.05908203125 487" stroke-miterlimit="10"/></g><g transform="translate(-502,-174) scale(1,1)"><path fill="none" stroke="#000000" d="M 623.03173828125 375 L 623.03173828125 487" stroke-miterlimit="10"/></g><g transform="translate(-502,-174) scale(1,1)"><g><path fill="none" stroke="none"/><text fill="#000000" stroke="none" font-family="Arial" font-size="13px" font-style="normal" font-weight="bold" text-decoration="none" x="625.08544921875" y="369.5">event</text></g></g><g transform="translate(-502,-174) scale(1,1)"><g><path fill="none" stroke="none"/><text fill="#000000" stroke="none" font-family="Arial" font-size="13px" font-style="normal" font-weight="normal" text-decoration="none" x="517" y="393">PK</text></g></g><g transform="translate(-502,-174) scale(1,1)"><g><path fill="none" stroke="none"/><text fill="#000000" stroke="none" font-family="Arial" font-size="13px" font-style="normal" font-weight="normal" text-decoration="none" x="545.05908203125" y="393">id</text></g></g><g transform="translate(-502,-174) scale(1,1)"><g><path fill="none" stroke="none"/><text fill="#000000" stroke="none" font-family="Arial" font-size="13px" font-style="normal" font-weight="normal" text-decoration="none" x="628.03173828125" y="393">BIGINT UNSIGNED</text></g></g><g transform="translate(-502,-174) scale(1,1)"><g><path fill="none" stroke="none"/><text fill="#000000" stroke="none" font-family="Arial" font-size="13px" font-style="normal" font-weight="normal" text-decoration="none" x="517" y="408">FK</text></g></g><g transform="translate(-502,-174) scale(1,1)"><g><path fill="none" stroke="none"/><text fill="#000000" stroke="none" font-family="Arial" font-size="13px" font-style="normal" font-weight="normal" text-decoration="none" x="545.05908203125" y="408">category_id</text></g></g><g transform="translate(-502,-174) scale(1,1)"><g><path fill="none" stroke="none"/><text fill="#000000" stroke="none" font-family="Arial" font-size="13px" font-style="normal" font-weight="normal" text-decoration="none" x="628.03173828125" y="408">SMALLINT UNSIGNED</text></g></g><g transform="translate(-502,-174) scale(1,1)"><g><path fill="none" stroke="none"/><text fill="#000000" stroke="none" font-family="Arial" font-size="13px" font-style="normal" font-weight="normal" text-decoration="none" x="517" y="423">FK</text></g></g><g transform="translate(-502,-174) scale(1,1)"><g><path fill="none" stroke="none"/><text fill="#000000" stroke="none" font-family="Arial" font-size="13px" font-style="normal" font-weight="normal" text-decoration="none" x="545.05908203125" y="423">address_id</text></g></g><g transform="translate(-502,-174) scale(1,1)"><g><path fill="none" stroke="none"/><text fill="#000000" stroke="none" font-family="Arial" font-size="13px" font-style="normal" font-weight="normal" text-decoration="none" x="628.03173828125" y="423">BIGINT UNSIGNED</text></g></g><g transform="translate(-502,-174) scale(1,1)"><g><path fill="none" stroke="none"/><text fill="#000000" stroke="none" font-family="Arial" font-size="13px" font-style="normal" font-weight="normal" text-decoration="none" x="517" y="438"></text></g></g><g transform="translate(-502,-174) scale(1,1)"><g><path fill="none" stroke="none"/><text fill="#000000" stroke="none" font-family="Arial" font-size="13px" font-style="normal" font-weight="normal" text-decoration="none" x="545.05908203125" y="438">title</text></g></g><g transform="translate(-502,-174) scale(1,1)"><g><path fill="none" stroke="none"/><text fill="#000000" stroke="none" font-family="Arial" font-size="13px" font-style="normal" font-weight="normal" text-decoration="none" x="628.03173828125" y="438">VARCHAR(250)</text></g></g><g transform="translate(-502,-174) scale(1,1)"><g><path fill="none" stroke="none"/><text fill="#000000" stroke="none" font-family="Arial" font-size="13px" font-style="normal" font-weight="normal" text-decoration="none" x="517" y="453">N</text></g></g><g transform="translate(-502,-174) scale(1,1)"><g><path fill="none" stroke="none"/><text fill="#000000" stroke="none" font-family="Arial" font-size="13px" font-style="normal" font-weight="normal" text-decoration="none" x="545.05908203125" y="453">description</text></g></g><g transform="translate(-502,-174) scale(1,1)"><g><path fill="none" stroke="none"/><text fill="#000000" stroke="none" font-family="Arial" font-size="13px" font-style="normal" font-weight="normal" text-decoration="none" x="628.03173828125" y="453">TEXT</text></g></g><g transform="translate(-502,-174) scale(1,1)"><g><path fill="none" stroke="none"/><text fill="#000000" stroke="none" font-family="Arial" font-size="13px" font-style="normal" font-weight="normal" text-decoration="none" x="517" y="468"></text></g></g><g transform="translate(-502,-174) scale(1,1)"><g><path fill="none" stroke="none"/><text fill="#000000" stroke="none" font-family="Arial" font-size="13px" font-style="normal" font-weight="normal" text-decoration="none" x="545.05908203125" y="468">start</text></g></g><g transform="translate(-502,-174) scale(1,1)"><g><path fill="none" stroke="none"/><text fill="#000000" stroke="none" font-family="Arial" font-size="13px" font-style="normal" font-weight="normal" text-decoration="none" x="628.03173828125" y="468">DATETIME</text></g></g><g transform="translate(-502,-174) scale(1,1)"><g><path fill="none" stroke="none"/><text fill="#000000" stroke="none" font-family="Arial" font-size="13px" font-style="normal" font-weight="normal" text-decoration="none" x="517" y="483"></text></g></g><g transform="translate(-502,-174) scale(1,1)"><g><path fill="none" stroke="none"/><text fill="#000000" stroke="none" font-family="Arial" font-size="13px" font-style="normal" font-weight="normal" text-decoration="none" x="545.05908203125" y="483">end</text></g></g><g transform="translate(-502,-174) scale(1,1)"><g><path fill="none" stroke="none"/><text fill="#000000" stroke="none" font-family="Arial" font-size="13px" font-style="normal" font-weight="normal" text-decoration="none" x="628.03173828125" y="483">DATETIME</text></g></g><g transform="translate(-502,-174) scale(1,1)"><path fill="none" stroke="#000000" d="M 832 424 L 770 424" stroke-miterlimit="10"/></g><g transform="translate(-502,-174) scale(1,1)"><path fill="none" stroke="#000000" d="M 784 424 L 770 417" stroke-miterlimit="10"/></g><g transform="translate(-502,-174) scale(1,1)"><path fill="none" stroke="#000000" d="M 784 424 L 770 431" stroke-miterlimit="10"/></g><g transform="translate(-502,-174) scale(1,1)"><path fill="#FFFFFF" stroke="none" d="M 785 424 C 785 420.1340064 788.1340064 417 792 417 C 795.8659936 417 799 420.1340064 799 424 C 799 427.8659936 795.8659936 431 792 431 C 788.1340064 431 785 427.8659936 785 424 Z"/></g><g transform="translate(-502,-174) scale(1,1)"><path fill="none" stroke="#000000" d="M 785 424 C 785 420.1340064 788.1340064 417 792 417 C 795.8659936 417 799 420.1340064 799 424 C 799 427.8659936 795.8659936 431 792 431 C 788.1340064 431 785 427.8659936 785 424 Z" stroke-miterlimit="10"/></g><g transform="translate(-502,-174) scale(1,1)"><path fill="none" stroke="#000000" d="M 825 431 L 825 417" stroke-miterlimit="10"/></g><g transform="translate(-502,-174) scale(1,1)"><g><path fill="none" stroke="none"/><text fill="#000000" stroke="none" font-family="Arial" font-size="13px" font-style="normal" font-weight="normal" text-decoration="none" x="805.5" y="444.5"></text></g></g><g transform="translate(-502,-174) scale(1,1)"><g><path fill="none" stroke="none"/><text fill="#000000" stroke="none" font-family="Arial" font-size="13px" font-style="normal" font-weight="normal" text-decoration="none" x="794.5" y="444.5"></text></g></g><g transform="translate(-502,-174) scale(1,1)"><rect fill="#ffffff" stroke="none" x="528" y="224" width="218.9599609375" height="60"/></g><g transform="translate(-502,-174) scale(1,1)"><path fill="none" stroke="#000000" d="M 528 224 L 746.9599609375 224 L 746.9599609375 284 L 528 284 L 528 224 Z Z" stroke-miterlimit="10"/></g><g transform="translate(-502,-174) scale(1,1)"><path fill="none" stroke="#000000" d="M 528 247 L 746.9599609375 247" stroke-miterlimit="10"/></g><g transform="translate(-502,-174) scale(1,1)"><path fill="none" stroke="#000000" d="M 556.05908203125 247 L 556.05908203125 284" stroke-miterlimit="10"/></g><g transform="translate(-502,-174) scale(1,1)"><path fill="none" stroke="#000000" d="M 600.01904296875 247 L 600.01904296875 284" stroke-miterlimit="10"/></g><g transform="translate(-502,-174) scale(1,1)"><g><path fill="none" stroke="none"/><text fill="#000000" stroke="none" font-family="Arial" font-size="13px" font-style="normal" font-weight="bold" text-decoration="none" x="612.549560546875" y="241.5">category</text></g></g><g transform="translate(-502,-174) scale(1,1)"><g><path fill="none" stroke="none"/><text fill="#000000" stroke="none" font-family="Arial" font-size="13px" font-style="normal" font-weight="normal" text-decoration="none" x="533" y="265">PK</text></g></g><g transform="translate(-502,-174) scale(1,1)"><g><path fill="none" stroke="none"/><text fill="#000000" stroke="none" font-family="Arial" font-size="13px" font-style="normal" font-weight="normal" text-decoration="none" x="561.05908203125" y="265">id</text></g></g><g transform="translate(-502,-174) scale(1,1)"><g><path fill="none" stroke="none"/><text fill="#000000" stroke="none" font-family="Arial" font-size="13px" font-style="normal" font-weight="normal" text-decoration="none" x="605.01904296875" y="265">SMALLINT UNSIGNED</text></g></g><g transform="translate(-502,-174) scale(1,1)"><g><path fill="none" stroke="none"/><text fill="#000000" stroke="none" font-family="Arial" font-size="13px" font-style="normal" font-weight="normal" text-decoration="none" x="533" y="280">U</text></g></g><g transform="translate(-502,-174) scale(1,1)"><g><path fill="none" stroke="none"/><text fill="#000000" stroke="none" font-family="Arial" font-size="13px" font-style="normal" font-weight="normal" text-decoration="none" x="561.05908203125" y="280">name</text></g></g><g transform="translate(-502,-174) scale(1,1)"><g><path fill="none" stroke="none"/><text fill="#000000" stroke="none" font-family="Arial" font-size="13px" font-style="normal" font-weight="normal" text-decoration="none" x="605.01904296875" y="280">VARCHAR(80)</text></g></g><g transform="translate(-502,-174) scale(1,1)"><path fill="none" stroke="#000000" d="M 640 284 L 640 352" stroke-miterlimit="10"/></g><g transform="translate(-502,-174) scale(1,1)"><path fill="none" stroke="#000000" d="M 640 338 L 633 352" stroke-miterlimit="10"/></g><g transform="translate(-502,-174) scale(1,1)"><path fill="none" stroke="#000000" d="M 640 338 L 647 352" stroke-miterlimit="10"/></g><g transform="translate(-502,-174) scale(1,1)"><path fill="none" stroke="#000000" d="M 647 291 L 633 291" stroke-miterlimit="10"/></g><g transform="translate(-502,-174) scale(1,1)"><g><path fill="none" stroke="none"/><text fill="#000000" stroke="none" font-family="Arial" font-size="13px" font-style="normal" font-weight="normal" text-decoration="none" x="654.5" y="315.5"></text></g></g><g transform="translate(-502,-174) scale(1,1)"><g><path fill="none" stroke="none"/><text fill="#000000" stroke="none" font-family="Arial" font-size="13px" font-style="normal" font-weight="normal" text-decoration="none" x="654.5" y="332.5"></text></g></g><g transform="translate(-502,-174) scale(1,1)"><rect fill="#ffffff" stroke="none" x="832" y="736" width="218.9599609375" height="75"/></g><g transform="translate(-502,-174) scale(1,1)"><path fill="none" stroke="#000000" d="M 832 736 L 1050.9599609375 736 L 1050.9599609375 811 L 832 811 L 832 736 Z Z" stroke-miterlimit="10"/></g><g transform="translate(-502,-174) scale(1,1)"><path fill="none" stroke="#000000" d="M 832 759 L 1050.9599609375 759" stroke-miterlimit="10"/></g><g transform="translate(-502,-174) scale(1,1)"><path fill="none" stroke="#000000" d="M 860.05908203125 759 L 860.05908203125 811" stroke-miterlimit="10"/></g><g transform="translate(-502,-174) scale(1,1)"><path fill="none" stroke="#000000" d="M 904.01904296875 759 L 904.01904296875 811" stroke-miterlimit="10"/></g><g transform="translate(-502,-174) scale(1,1)"><g><path fill="none" stroke="none"/><text fill="#000000" stroke="none" font-family="Arial" font-size="13px" font-style="normal" font-weight="bold" text-decoration="none" x="920.16455078125" y="753.5">country</text></g></g><g transform="translate(-502,-174) scale(1,1)"><g><path fill="none" stroke="none"/><text fill="#000000" stroke="none" font-family="Arial" font-size="13px" font-style="normal" font-weight="normal" text-decoration="none" x="837" y="777">PK</text></g></g><g transform="translate(-502,-174) scale(1,1)"><g><path fill="none" stroke="none"/><text fill="#000000" stroke="none" font-family="Arial" font-size="13px" font-style="normal" font-weight="normal" text-decoration="none" x="865.05908203125" y="777">id</text></g></g><g transform="translate(-502,-174) scale(1,1)"><g><path fill="none" stroke="none"/><text fill="#000000" stroke="none" font-family="Arial" font-size="13px" font-style="normal" font-weight="normal" text-decoration="none" x="909.01904296875" y="777">SMALLINT UNSIGNED</text></g></g><g transform="translate(-502,-174) scale(1,1)"><g><path fill="none" stroke="none"/><text fill="#000000" stroke="none" font-family="Arial" font-size="13px" font-style="normal" font-weight="normal" text-decoration="none" x="837" y="792">U</text></g></g><g transform="translate(-502,-174) scale(1,1)"><g><path fill="none" stroke="none"/><text fill="#000000" stroke="none" font-family="Arial" font-size="13px" font-style="normal" font-weight="normal" text-decoration="none" x="865.05908203125" y="792">name</text></g></g><g transform="translate(-502,-174) scale(1,1)"><g><path fill="none" stroke="none"/><text fill="#000000" stroke="none" font-family="Arial" font-size="13px" font-style="normal" font-weight="normal" text-decoration="none" x="909.01904296875" y="792">VARCHAR(60)</text></g></g><g transform="translate(-502,-174) scale(1,1)"><g><path fill="none" stroke="none"/><text fill="#000000" stroke="none" font-family="Arial" font-size="13px" font-style="normal" font-weight="normal" text-decoration="none" x="837" y="807">U</text></g></g><g transform="translate(-502,-174) scale(1,1)"><g><path fill="none" stroke="none"/><text fill="#000000" stroke="none" font-family="Arial" font-size="13px" font-style="normal" font-weight="normal" text-decoration="none" x="865.05908203125" y="807">code</text></g></g><g transform="translate(-502,-174) scale(1,1)"><g><path fill="none" stroke="none"/><text fill="#000000" stroke="none" font-family="Arial" font-size="13px" font-style="normal" font-weight="normal" text-decoration="none" x="909.01904296875" y="807">CHAR(2)</text></g></g><g transform="translate(-502,-174) scale(1,1)"><rect fill="#ffffff" stroke="none" x="512" y="736" width="259.40087890625" height="75"/></g><g transform="translate(-502,-174) scale(1,1)"><path fill="none" stroke="#000000" d="M 512 736 L 771.40087890625 736 L 771.40087890625 811 L 512 811 L 512 736 Z Z" stroke-miterlimit="10"/></g><g transform="translate(-502,-174) scale(1,1)"><path fill="none" stroke="#000000" d="M 512 759 L 771.40087890625 759" stroke-miterlimit="10"/></g><g transform="translate(-502,-174) scale(1,1)"><path fill="none" stroke="#000000" d="M 540.05908203125 759 L 540.05908203125 811" stroke-miterlimit="10"/></g><g transform="translate(-502,-174) scale(1,1)"><path fill="none" stroke="#000000" d="M 616.5126953125 759 L 616.5126953125 811" stroke-miterlimit="10"/></g><g transform="translate(-502,-174) scale(1,1)"><g><path fill="none" stroke="none"/><text fill="#000000" stroke="none" font-family="Arial" font-size="13px" font-style="normal" font-weight="bold" text-decoration="none" x="631.950439453125" y="753.5">city</text></g></g><g transform="translate(-502,-174) scale(1,1)"><g><path fill="none" stroke="none"/><text fill="#000000" stroke="none" font-family="Arial" font-size="13px" font-style="normal" font-weight="normal" text-decoration="none" x="517" y="777">PK</text></g></g><g transform="translate(-502,-174) scale(1,1)"><g><path fill="none" stroke="none"/><text fill="#000000" stroke="none" font-family="Arial" font-size="13px" font-style="normal" font-weight="normal" text-decoration="none" x="545.05908203125" y="777">id</text></g></g><g transform="translate(-502,-174) scale(1,1)"><g><path fill="none" stroke="none"/><text fill="#000000" stroke="none" font-family="Arial" font-size="13px" font-style="normal" font-weight="normal" text-decoration="none" x="621.5126953125" y="777">MEDIUMINT UNSIGNED</text></g></g><g transform="translate(-502,-174) scale(1,1)"><g><path fill="none" stroke="none"/><text fill="#000000" stroke="none" font-family="Arial" font-size="13px" font-style="normal" font-weight="normal" text-decoration="none" x="517" y="792">U</text></g></g><g transform="translate(-502,-174) scale(1,1)"><g><path fill="none" stroke="none"/><text fill="#000000" stroke="none" font-family="Arial" font-size="13px" font-style="normal" font-weight="normal" text-decoration="none" x="545.05908203125" y="792">name</text></g></g><g transform="translate(-502,-174) scale(1,1)"><g><path fill="none" stroke="none"/><text fill="#000000" stroke="none" font-family="Arial" font-size="13px" font-style="normal" font-weight="normal" text-decoration="none" x="621.5126953125" y="792">VARCHAR(50)</text></g></g><g transform="translate(-502,-174) scale(1,1)"><g><path fill="none" stroke="none"/><text fill="#000000" stroke="none" font-family="Arial" font-size="13px" font-style="normal" font-weight="normal" text-decoration="none" x="517" y="807">FK</text></g></g><g transform="translate(-502,-174) scale(1,1)"><g><path fill="none" stroke="none"/><text fill="#000000" stroke="none" font-family="Arial" font-size="13px" font-style="normal" font-weight="normal" text-decoration="none" x="545.05908203125" y="807">country_id</text></g></g><g transform="translate(-502,-174) scale(1,1)"><g><path fill="none" stroke="none"/><text fill="#000000" stroke="none" font-family="Arial" font-size="13px" font-style="normal" font-weight="normal" text-decoration="none" x="621.5126953125" y="807">SMALLINT UNSIGNED</text></g></g><g transform="translate(-502,-174) scale(1,1)"><path fill="none" stroke="#000000" d="M 832 779 L 771 779" stroke-miterlimit="10"/></g><g transform="translate(-502,-174) scale(1,1)"><path fill="none" stroke="#000000" d="M 785 779 L 771 772" stroke-miterlimit="10"/></g><g transform="translate(-502,-174) scale(1,1)"><path fill="none" stroke="#000000" d="M 785 779 L 771 786" stroke-miterlimit="10"/></g><g transform="translate(-502,-174) scale(1,1)"><path fill="none" stroke="#000000" d="M 825 786 L 825 772" stroke-miterlimit="10"/></g><g transform="translate(-502,-174) scale(1,1)"><g><path fill="none" stroke="none"/><text fill="#000000" stroke="none" font-family="Arial" font-size="13px" font-style="normal" font-weight="normal" text-decoration="none" x="805.5" y="799.5"></text></g></g><g transform="translate(-502,-174) scale(1,1)"><g><path fill="none" stroke="none"/><text fill="#000000" stroke="none" font-family="Arial" font-size="13px" font-style="normal" font-weight="normal" text-decoration="none" x="795.5" y="799.5"></text></g></g><g transform="translate(-502,-174) scale(1,1)"><rect fill="#ffffff" stroke="none" x="512" y="552" width="268.8017578125" height="120"/></g><g transform="translate(-502,-174) scale(1,1)"><path fill="none" stroke="#000000" d="M 512 552 L 780.8017578125 552 L 780.8017578125 672 L 512 672 L 512 552 Z Z" stroke-miterlimit="10"/></g><g transform="translate(-502,-174) scale(1,1)"><path fill="none" stroke="#000000" d="M 512 575 L 780.8017578125 575" stroke-miterlimit="10"/></g><g transform="translate(-502,-174) scale(1,1)"><path fill="none" stroke="#000000" d="M 540.05908203125 575 L 540.05908203125 672" stroke-miterlimit="10"/></g><g transform="translate(-502,-174) scale(1,1)"><path fill="none" stroke="#000000" d="M 625.91357421875 575 L 625.91357421875 672" stroke-miterlimit="10"/></g><g transform="translate(-502,-174) scale(1,1)"><g><path fill="none" stroke="none"/><text fill="#000000" stroke="none" font-family="Arial" font-size="13px" font-style="normal" font-weight="bold" text-decoration="none" x="623.2763671875" y="569.5">address</text></g></g><g transform="translate(-502,-174) scale(1,1)"><g><path fill="none" stroke="none"/><text fill="#000000" stroke="none" font-family="Arial" font-size="13px" font-style="normal" font-weight="normal" text-decoration="none" x="517" y="593">PK</text></g></g><g transform="translate(-502,-174) scale(1,1)"><g><path fill="none" stroke="none"/><text fill="#000000" stroke="none" font-family="Arial" font-size="13px" font-style="normal" font-weight="normal" text-decoration="none" x="545.05908203125" y="593">id</text></g></g><g transform="translate(-502,-174) scale(1,1)"><g><path fill="none" stroke="none"/><text fill="#000000" stroke="none" font-family="Arial" font-size="13px" font-style="normal" font-weight="normal" text-decoration="none" x="630.91357421875" y="593">BIGINT UNSIGNED</text></g></g><g transform="translate(-502,-174) scale(1,1)"><g><path fill="none" stroke="none"/><text fill="#000000" stroke="none" font-family="Arial" font-size="13px" font-style="normal" font-weight="normal" text-decoration="none" x="517" y="608"></text></g></g><g transform="translate(-502,-174) scale(1,1)"><g><path fill="none" stroke="none"/><text fill="#000000" stroke="none" font-family="Arial" font-size="13px" font-style="normal" font-weight="normal" text-decoration="none" x="545.05908203125" y="608">address1</text></g></g><g transform="translate(-502,-174) scale(1,1)"><g><path fill="none" stroke="none"/><text fill="#000000" stroke="none" font-family="Arial" font-size="13px" font-style="normal" font-weight="normal" text-decoration="none" x="630.91357421875" y="608">VARCHAR(60)</text></g></g><g transform="translate(-502,-174) scale(1,1)"><g><path fill="none" stroke="none"/><text fill="#000000" stroke="none" font-family="Arial" font-size="13px" font-style="normal" font-weight="normal" text-decoration="none" x="517" y="623">N</text></g></g><g transform="translate(-502,-174) scale(1,1)"><g><path fill="none" stroke="none"/><text fill="#000000" stroke="none" font-family="Arial" font-size="13px" font-style="normal" font-weight="normal" text-decoration="none" x="545.05908203125" y="623">address2</text></g></g><g transform="translate(-502,-174) scale(1,1)"><g><path fill="none" stroke="none"/><text fill="#000000" stroke="none" font-family="Arial" font-size="13px" font-style="normal" font-weight="normal" text-decoration="none" x="630.91357421875" y="623">VARCHAR(60)</text></g></g><g transform="translate(-502,-174) scale(1,1)"><g><path fill="none" stroke="none"/><text fill="#000000" stroke="none" font-family="Arial" font-size="13px" font-style="normal" font-weight="normal" text-decoration="none" x="517" y="638">N</text></g></g><g transform="translate(-502,-174) scale(1,1)"><g><path fill="none" stroke="none"/><text fill="#000000" stroke="none" font-family="Arial" font-size="13px" font-style="normal" font-weight="normal" text-decoration="none" x="545.05908203125" y="638">district</text></g></g><g transform="translate(-502,-174) scale(1,1)"><g><path fill="none" stroke="none"/><text fill="#000000" stroke="none" font-family="Arial" font-size="13px" font-style="normal" font-weight="normal" text-decoration="none" x="630.91357421875" y="638">VARCHAR(20)</text></g></g><g transform="translate(-502,-174) scale(1,1)"><g><path fill="none" stroke="none"/><text fill="#000000" stroke="none" font-family="Arial" font-size="13px" font-style="normal" font-weight="normal" text-decoration="none" x="517" y="653">FK</text></g></g><g transform="translate(-502,-174) scale(1,1)"><g><path fill="none" stroke="none"/><text fill="#000000" stroke="none" font-family="Arial" font-size="13px" font-style="normal" font-weight="normal" text-decoration="none" x="545.05908203125" y="653">city_id</text></g></g><g transform="translate(-502,-174) scale(1,1)"><g><path fill="none" stroke="none"/><text fill="#000000" stroke="none" font-family="Arial" font-size="13px" font-style="normal" font-weight="normal" text-decoration="none" x="630.91357421875" y="653">MEDIUMINT UNSIGNED</text></g></g><g transform="translate(-502,-174) scale(1,1)"><g><path fill="none" stroke="none"/><text fill="#000000" stroke="none" font-family="Arial" font-size="13px" font-style="normal" font-weight="normal" text-decoration="none" x="517" y="668">N</text></g></g><g transform="translate(-502,-174) scale(1,1)"><g><path fill="none" stroke="none"/><text fill="#000000" stroke="none" font-family="Arial" font-size="13px" font-style="normal" font-weight="normal" text-decoration="none" x="545.05908203125" y="668">postal_code</text></g></g><g transform="translate(-502,-174) scale(1,1)"><g><path fill="none" stroke="none"/><text fill="#000000" stroke="none" font-family="Arial" font-size="13px" font-style="normal" font-weight="normal" text-decoration="none" x="630.91357421875" y="668">VARCHAR(10)</text></g></g><g transform="translate(-502,-174) scale(1,1)"><path fill="none" stroke="#000000" d="M 640 736 L 640 672" stroke-miterlimit="10"/></g><g transform="translate(-502,-174) scale(1,1)"><path fill="none" stroke="#000000" d="M 640 686 L 647 672" stroke-miterlimit="10"/></g><g transform="translate(-502,-174) scale(1,1)"><path fill="none" stroke="#000000" d="M 640 686 L 633 672" stroke-miterlimit="10"/></g><g transform="translate(-502,-174) scale(1,1)"><path fill="none" stroke="#000000" d="M 633 729 L 647 729" stroke-miterlimit="10"/></g><g transform="translate(-502,-174) scale(1,1)"><g><path fill="none" stroke="none"/><text fill="#000000" stroke="none" font-family="Arial" font-size="13px" font-style="normal" font-weight="normal" text-decoration="none" x="624.5" y="716.5"></text></g></g><g transform="translate(-502,-174) scale(1,1)"><g><path fill="none" stroke="none"/><text fill="#000000" stroke="none" font-family="Arial" font-size="13px" font-style="normal" font-weight="normal" text-decoration="none" x="624.5" y="703.5"></text></g></g><g transform="translate(-502,-174) scale(1,1)"><path fill="none" stroke="#000000" d="M 642 552 L 642 487" stroke-miterlimit="10"/></g><g transform="translate(-502,-174) scale(1,1)"><path fill="none" stroke="#000000" d="M 642 501 L 649 487" stroke-miterlimit="10"/></g><g transform="translate(-502,-174) scale(1,1)"><path fill="none" stroke="#000000" d="M 642 501 L 635 487" stroke-miterlimit="10"/></g><g transform="translate(-502,-174) scale(1,1)"><path fill="none" stroke="#000000" d="M 635 545 L 649 545" stroke-miterlimit="10"/></g><g transform="translate(-502,-174) scale(1,1)"><g><path fill="none" stroke="none"/><text fill="#000000" stroke="none" font-family="Arial" font-size="13px" font-style="normal" font-weight="normal" text-decoration="none" x="626.5" y="532.5"></text></g></g><g transform="translate(-502,-174) scale(1,1)"><g><path fill="none" stroke="none"/><text fill="#000000" stroke="none" font-family="Arial" font-size="13px" font-style="normal" font-weight="normal" text-decoration="none" x="626.5" y="518.5"></text></g></g></g></svg>