<svg xmlns="http://www.w3.org/2000/svg" viewBox="0 0 482.16 491.75"><title>Evento</title><path d="M436.12,250.24h0a54.57,54.57,0,0,0-51.86,37,131.86,131.86,0,0,1-125.77,90.05,126.5,126.5,0,0,1-48.2-9.94L428.36,149.31a51.56,51.56,0,0,0,14.05-46.91A54.62,54.62,0,0,0,426.09,71,240.66,240.66,0,0,0,256.35,4C125.79,5.52,19.34,111.91,17.74,242.46A240.39,240.39,0,0,0,55.88,375.78L24,407.63a51.62,51.62,0,0,0,0,73h0a51.62,51.62,0,0,0,73,0l31.84-31.84A240.33,240.33,0,0,0,259.2,487c106.55,0,197-69,229-164.78C500.08,286.79,473.44,250.24,436.12,250.24Zm-310.73-1.58A134,134,0,0,1,309.45,121.11l-174,174A128.15,128.15,0,0,1,125.39,248.66Z" transform="translate(-8.92 -4)" style="fill:#fff"/></svg>